<svg xmlns="http://www.w3.org/2000/svg" viewBox="0 0 1000 1000" xml:space="preserve"><path d="M775.7 990H224.4c-67.6 0-122.5-54.8-122.5-122.5V132.6c0-67.6 54.8-122.5 122.5-122.5h367.5c40.9-.6 57.3.9 61.2.9v-.9l244.9 245V867.5c.1 67.7-54.8 122.5-122.3 122.5zM653.2 71.4v122.5c0 33.8 27.4 61.2 61.3 61.2H837L653.2 71.4zm183.6 244.9H714.3c-67.7 0-122.5-54.8-122.5-122.5 0 0-1.5-49.1-.9-122.5H224.4c-33.8 0-61.2 27.4-61.2 61.3v734.9c0 33.8 27.4 61.3 61.2 61.3h551.2c33.7 0 61.3-27.4 61.3-61.3l-.1-551.2zM683.7 745.1H316.3a30.7 30.7 0 0 1 0-61.4h367.5a30.7 30.7 0 0 1 30.7 30.7c-.2 17-13.9 30.7-30.8 30.7zm0-183.8H316.3a30.7 30.7 0 0 1 0-61.4h367.5a30.7 30.7 0 0 1 30.7 30.7 30.86 30.86 0 0 1-30.8 30.7z"/></svg>